<?xml version="1.0" encoding="utf-8"?>
<!-- Generator: Adobe Illustrator 21.1.0, SVG Export Plug-In . SVG Version: 6.00 Build 0)  -->
<svg version="1.1" id="Layer_1" xmlns="http://www.w3.org/2000/svg" xmlns:xlink="http://www.w3.org/1999/xlink" x="0px" y="0px"
	 viewBox="0 0 800 800" style="enable-background:new 0 0 800 800;" xml:space="preserve">
<path d="M540.1,597.4C443.1,507,329.9,441,200.9,400.5c41.5-4.8,72.1-24.2,86.4-63.7c14.3-39.5,1.9-74.1-23.8-105.7
	c50.8,7.7,99.1,22.9,146,43.2c47,20.3,90.9,45.7,131.9,76.3c41.1,30.6,78.6,64.9,110.8,104.7c-0.3,0.5-0.5,1-0.8,1.5
	c-4.9-0.3-9.7-0.7-14.6-1c-34-2.1-63.3,8.1-85.5,34.6c-19,22.6-25.3,49.2-19.9,78.1C533.5,578.8,537.5,588.7,540.1,597.4z
	 M521.4,393.6c1.4-48.9-40-92.2-89.6-93.7c-52.4-1.6-96.2,38.8-97.7,90.3c-1.6,52.6,38.5,95.5,90.6,97
	C477.3,488.7,519.9,447.5,521.4,393.6z"/>
<path d="M168.9,431.5c64.1,11.7,124.4,34.4,181.2,65.4c66.1,36,124.6,82.2,174.7,138.6c-0.4,0.5-0.9,1-1.3,1.6
	c-1.3-1.3-2.6-2.7-4-3.9c-19.3-18-41.4-25.4-67-16.2c-18.1,6.5-28.4,20.4-32,39c-0.8,4.1-2.3,5.4-6.1,5.1
	c-15.1-1.6-30.1-3.1-45.2-4.6c-3.8-0.4-4.3-2.2-3.8-5.8c6.6-45.5-22.6-85.8-67.7-92.8c-23.2-3.6-44.4,2.2-62.8,16.9
	c-3.1,2.5-4.9,2.5-7.2-0.6c-9.4-12.9-18.9-25.7-28.5-38.8c20.5-16.9,28.5-37,19.8-61.5C210.7,450.2,192.1,438,168.9,431.5z"/>
<path d="M667.1,416.4c-4.7-4.6-9.1-9.1-13.7-13.3c-13.9-12.8-27.6-25.8-41.9-38.3c-11.6-10.1-23.4-20.2-36-29.1
	c-17.2-12.2-34.9-23.8-53-34.5c-27.2-16.1-54.7-31.9-82.7-46.7c-18.5-9.8-37.7-18.2-57.1-26c-19.5-7.8-39.6-14.3-59.6-20.9
	c-9.7-3.2-19.8-5.1-29.8-7.7c-1.7-0.4-3.3-1.1-5-1.6c-0.1-0.5-0.2-0.9-0.2-1.4c7.8-4,15.5-8.2,23.4-11.9c1-0.5,3.5,1.1,4.7,2.4
	c11.5,12.2,25.4,19.6,42.2,21.8c28.4,3.7,53.7-14.5,58.7-42.8c0.8-4.6,2.6-5.6,6.8-5.4c60.7,2.3,114.1,22.5,159.8,63.1
	c18.9,16.8,34.5,36,47.8,57.3c1.5,2.5,2.4,4.2-0.6,6.6c-22.8,18.3-26.5,48.9-9,72.8c10,13.6,23.5,22,39.9,25.6
	c3.9,0.9,5.4,2.5,5.3,6.3C667,400.5,667.1,408.3,667.1,416.4z"/>
<path d="M76.6,229.7c10.4,0.9,20,1.6,29.5,2.5c36.5,3.2,73,6.4,109.5,9.6c12.8,1.1,25.6,2,38.3,3.3c1.9,0.2,4.2,1.4,5.4,2.9
	c23.3,30.3,26.8,63.2,10.6,97.5c-6,12.7-17.4,21.7-29.5,29.1c-15.2,9.4-31.5,14.2-49.4,12.7c-2.4-0.2-5.5-1.8-6.9-3.7
	c-35.2-49.8-70.1-99.7-105.1-149.7C78.2,232.9,77.7,231.7,76.6,229.7z"/>
<path d="M750.2,618.6c-7.7-0.6-14.6-1.1-21.6-1.7c-28.9-2.5-57.8-5.1-86.6-7.6c-26.4-2.3-52.8-4.5-79.1-7.1
	c-2.3-0.2-5.2-2.3-6.5-4.3c-17.6-28.5-18-58.3-3.7-87.7c7.3-15,21.3-24.8,36.2-32.6c16.9-8.8,34.8-11,53.4-8.5
	c2,0.3,4.5,1.6,5.7,3.2c33.8,47.9,67.5,95.9,101.1,144C749.4,616.6,749.5,617.1,750.2,618.6z"/>
<path d="M224.8,743.1c0.5-6.4,0.8-11.9,1.2-17.3c4-45.3,7.9-90.6,12-135.9c0.2-2.6,1.7-5.9,3.7-7.6c25.3-20.7,55.7-19.9,79.2-6.5
	c23.6,13.4,40.7,40.9,34.2,74c-0.4,1.9-1.8,4-3.4,5.1c-41.2,28.9-82.4,57.7-123.7,86.5C227.4,742,226.6,742.2,224.8,743.1z"/>
<path d="M339.3,77.1c3.8,4.4,7.2,8.2,10.5,12.1c19,22.5,37.8,45.2,56.9,67.6c2.9,3.4,3,6.7,2.3,10.6c-3.1,16.4-16.8,30.4-34.4,33.4
	c-19.7,3.3-37.4-1.3-51.1-16.9c-1.5-1.7-2.7-4.8-2.4-7c5.4-32,11.1-63.9,16.8-95.9C338.2,80,338.7,78.9,339.3,77.1z"/>
<path d="M746.5,312.3c-7.3,6.1-13.8,11.7-20.4,17.2c-18.2,15.3-36.6,30.4-54.7,45.9c-4.2,3.6-8,4.2-13.1,2.8
	c-30.3-8.3-47.4-40.7-35.2-68.5c2.7-6.1,9-10.8,13.9-15.9c0.9-0.9,3.2-1,4.7-0.7c33.4,5.8,66.8,11.8,100.2,17.7
	C743.2,311.1,744.3,311.6,746.5,312.3z"/>
<path d="M89.7,507.6c10.2-8.6,19.5-16.3,28.8-24.1c16-13.4,31.9-26.8,47.9-40c1.6-1.3,4.2-2.3,6-2c31.3,5.9,50.1,39.9,37.7,68.9
	c-2.5,5.9-8.4,10.4-13.1,15.3c-0.8,0.9-3.1,0.9-4.6,0.6c-32.6-5.7-65.3-11.5-97.9-17.2C93.3,508.8,92.1,508.3,89.7,507.6z"/>
<path d="M497.2,743c-9.1-10.8-17.3-20.6-25.6-30.3c-13.5-16.1-27-32.2-40.6-48.1c-2.1-2.4-2.9-4.7-2.5-8.1
	c2.1-22.2,27.6-38.1,49.8-35.5c13.5,1.6,25.6,6,34.8,16.5c1.3,1.5,2.4,4.2,2.1,6c-5.4,31.5-11,63-16.6,94.5
	C498.3,739.2,497.9,740.4,497.2,743z"/>
<path d="M595.8,103.5c-3.1,35.7-6.3,71.4-9.5,108.8c-25.2-19.8-51.5-35.1-81.4-46.8c30.6-21.4,60.1-42,89.6-62.7
	C594.9,103.1,595.3,103.3,595.8,103.5z"/>
<path d="M507.3,392.8c-0.1,45.4-34.6,79.6-79.3,80.4c-52.8,1-80.7-45.6-80.1-79c0.7-45.1,35.3-79.6,79.6-80.6
	C478.7,312.5,509.1,359.1,507.3,392.8z"/>
</svg>
