<?xml version="1.0" encoding="UTF-8"?>
<!-- Generator: Adobe Illustrator 21.1.0, SVG Export Plug-In . SVG Version: 6.00 Build 0)  -->
<svg version="1.1" id="Layer_1" xmlns="http://www.w3.org/2000/svg" xmlns:xlink="http://www.w3.org/1999/xlink" x="0px" y="0px" viewBox="0 0 800 800" style="enable-background:new 0 0 800 800;" xml:space="preserve">
<path d="M364.7,410.5c-4-3.6-7.6-6.5-10.8-9.8c-1-1.1-1.6-4.2-0.9-4.9c7.8-8.4,15.9-16.5,23.7-24.3c1.2,0.4,1.6,0.4,1.8,0.6  c3.1,2.2,6.3,6.4,9.3,6.3c5.9-0.2,12.2-1.7,16.4-7.2c1.2-1.6,2.6-3.1,4.2-4.2c8.4-5.9,10.6-15,12.4-24.2c0.3-1.5-0.4-3.6-1.4-4.8  c-1.9-2.5-4.4-4.5-6.6-6.8c-6.3-6.5-6.4-14.6-0.1-20.8c10.6-10.6,21.3-21.1,31.8-31.8c2.2-2.3,4.2-2.7,7.4-2.4  c7.1,0.7,12.5,3.9,16.9,9.3c3.1,3.7,6.5,7.1,9.4,10.3c17.4-17.5,34.1-34.2,51.1-51.3c-0.6-0.6-1.6-1.9-2.7-3.1  c-10.3-10.4-20.7-20.7-31.1-31.1c-6.6-6.6-6.6-14.5,0-21.1c18.5-18.5,37.2-36.8,55.4-55.6c4.7-4.9,10.2-5,15.9-5.5  c1.3-0.1,3,1.3,4.1,2.4c38.1,38,76.1,76,114.1,114.1c1.6,1.6,2.8,3.8,3.5,5.9c15.2,49.3,30.3,98.7,45.5,148c1,3.3,0.5,5.6-2,8  c-5.6,5.3-11.1,10.6-16.2,16.3c-3,3.4-5,3-8,0c-28.3-28.5-56.7-56.8-85-85.1c-10.7-10.7-21.5-21.4-32.1-32.2  c-2.7-2.8-4.5-3.4-7.6-0.2c-14.6,14.9-29.4,29.5-44.1,44.3c-0.9,0.9-1.7,1.9-3.9,4.4c3.3,2.7,6.8,5,9.7,7.9  c30.1,29.9,60.1,60,90.2,89.9c3.1,3.1,2.6,4.6,0.1,8c-7,9.3-14.8,10.5-25.8,7.5c-23-6.2-46.4-10.9-69.7-15.9  c-2.7-0.6-6.4,0.1-8.7,1.6c-14,9.2-27.8,18.9-42.2,28.7c4.3,6.1,1.3,10.2-3.2,14.3c-4.2,3.8-8,8-12.1,12c-3.9,3.8-7.5,3.9-11.9,0.9  c-1-0.7-3.4-0.9-4.1-0.3c-14.5,14.4-28.9,29-43.3,43.6c-0.1,0.1-0.1,0.3-0.2,1c5.4,3.6,2.6,6.6-1.1,9.8c-2.2,1.8-4.3,3.8-6,6  c-3,3.9-6,5.2-9.7,0c-6.6,6.5-13.2,12.6-19.3,19c-2.6,2.7-4.2,2.7-6.8,0c-7.1-7.5-14.6-14.5-21.8-22c-2.8-3-4.6-2.9-7.6,0  c-24.9,23.7-47.3,49.7-69.7,75.7c-28.7,33.4-60.7,63.6-94.1,92.3c-6.6,5.7-14.2,6.2-22.5,5.1c-32.6-4.6-54.9-30.7-53.3-63.6  c0.2-4.7,3.1-9.9,6.2-13.7c28.5-33.8,59-65.7,92.6-94.5c13.9-11.9,28.5-23.1,42.1-35.4c16.9-15.3,33.3-31.3,49.6-47.2  c17.5-17.1,34.8-34.4,52-51.9C351.4,426.1,357.4,418.7,364.7,410.5z M376.7,548.9c-5.3-7.7-5.3-7.7,1.2-14.3  c0.5-0.5,0.9-0.9,1.4-1.4c6.6-6.7,6.6-6.7,13.2-2.2c15.2-15.2,30.3-30.2,45.7-45.5c-0.2-0.3-0.8-1.2-1.4-1.8  c-7.4-7.1-4.9-6.8-12.4-0.3c-14.7,12.6-24.9,29.8-43.1,38.9c-6.3,3.1-10.7,10.2-16.4,16C368.8,541.7,372.3,544.9,376.7,548.9z   M282.5,571.1c8,0.1,14.3-6.1,14.3-14c0-7.8-6.1-13.9-13.9-13.9c-7.9-0.1-14.4,6.2-14.4,14.1C268.5,564.9,274.7,571,282.5,571.1z   M155.9,669.8c-8,0.1-13.8,6-13.8,14c0,8.1,6.3,14.1,14.4,13.9c7.8-0.2,13.7-6.4,13.5-14.3C169.9,675.4,164,669.7,155.9,669.8z"/>
</svg>