<svg xmlns="http://www.w3.org/2000/svg" xmlns:xlink="http://www.w3.org/1999/xlink" id="Layer_1" x="0" y="0" version="1.1" viewBox="0 0 800 800" xml:space="preserve" style="enable-background:new 0 0 800 800"><path d="M330.4,585.5c-27.7-27.7-55.3-55.3-82.6-82.5c51.9-51.9,104.1-104.1,155.8-155.8c27.2,27.2,55,55,82.5,82.6 C434.5,481.3,382.4,533.5,330.4,585.5z"/><path d="M583.1,526.1c-52,52-104.1,104.1-155.8,155.8c-27.4-27.3-55.1-55-82.6-82.5c51.9-51.9,104-104,155.9-155.9 C528,471,555.7,498.7,583.1,526.1z"/><path d="M151,406c51.9-51.9,104-104,156.6-156.6c0.6,0.5,1.9,1.5,3,2.6c25.2,25.2,50.3,50.4,75.6,75.4c2.9,2.9,3.5,4.7,0.2,7.9 c-50.2,49.9-100.2,100-150.3,150.1c-1,1-2.2,2-3,2.8C205.6,460.7,178.2,433.3,151,406z"/><path d="M331.5,225.9c13.7-10.6,27.2-21.4,41.2-31.6c22.8-16.6,46.3-32.1,72.5-43c9.6-3.9,19.3-7.3,29.9-6.9 c12.6,0.4,19.3,6.7,19,19.4c-0.2,6.6-1.5,13.3-3.4,19.6c-6.5,21-17.3,40.1-29.8,58c-14.9,21.4-31.1,42.1-46.7,63 c-0.7,0.9-1.3,1.9-1.8,2.7C385.3,279.9,358.8,253.3,331.5,225.9z"/><path d="M509.4,403.6c-26.9-26.8-53.4-53.3-80.5-80.4c7.2-5.7,14.4-11.7,21.9-17.5c23.7-18.4,48-36.1,75-49.4 c11.6-5.7,24-9.7,36.3-13.8c3.9-1.3,8.6-1.1,12.9-0.8c10.3,0.7,16.1,7.4,16.5,18.3c0.4,10.6-3,20.4-6.9,30 c-10.5,25.8-25.6,48.9-42,71.3c-9.7,13.3-20.1,26.1-30.3,39.1C511.2,401.7,510.1,402.9,509.4,403.6z"/><path d="M606.1,501.6c-2.6-2.5-4.7-4.4-6.7-6.4c-23.3-23.3-46.5-46.6-69.9-69.8c-3.5-3.5-3.4-5.2,0.4-8.3 c31-25.1,62.7-49.1,98.7-66.7c12.3-6,24.8-11.6,38.9-11.7c14.6-0.2,21.4,6.9,20.9,21.5c-0.5,13.8-5.9,26.2-11.8,38.4 c-15.6,32.1-36.6,60.7-58.6,88.5C614.2,491.8,610.4,496.4,606.1,501.6z"/><path d="M310,634.6c5.1-5.1,10.4-10.4,16-16c0.6,0.6,1.9,1.5,3,2.7c25.5,25.5,51,51,76.6,76.4c3,3,2.9,4.8-0.1,7.5 c-4.4,4.1-8.3,8.6-12.2,12.8C365.1,689.8,337.5,662.1,310,634.6z"/><path d="M310.9,604.3c-5.1,5-10.4,10.4-16.5,16.4c-7.3-7.5-14.9-15.5-22.7-23.4c-18.5-18.6-37.1-37.2-55.8-55.7 c-3.2-3.2-3.6-5.1-0.1-8.3c4.3-3.9,8-8.4,11.8-12.4C255.9,549.2,283.5,576.9,310.9,604.3z"/><path d="M213.3,507.1c-5,5-10.2,10.2-16.5,16.6c-6.5-6.9-13-14.1-19.9-21c-19.3-19.5-38.7-38.9-58.2-58.2c-3.2-3.1-3.1-5,0.1-8 c4.3-3.9,8.1-8.3,11.9-12.2C158.6,452.3,186,479.8,213.3,507.1z"/></svg>