<?xml version="1.0" encoding="utf-8"?>
<!-- Generator: Adobe Illustrator 21.1.0, SVG Export Plug-In . SVG Version: 6.00 Build 0)  -->
<svg version="1.1" id="Layer_1" xmlns="http://www.w3.org/2000/svg" xmlns:xlink="http://www.w3.org/1999/xlink" x="0px" y="0px"
	 viewBox="0 0 800 800" style="enable-background:new 0 0 800 800;" xml:space="preserve">
<path d="M287.7,530.3c-3,0-5.1,0-7.3,0c-56.7,0-113.3-0.1-170,0.1c-5.1,0-6.8-1.7-7.8-6.4c-11.8-55.2-14.9-111-10.4-167
	c2-25.5,7.1-50.8,10.7-76.1c0.6-4.1,2.5-5.3,6.6-5.2c57,0.1,114,0.1,171,0.1c2.1,0,4.3,0,7.2,0c0-2.6,0-4.7,0-6.7
	c0-56.5,0.1-113-0.1-169.5c0-5,1.6-6.7,6.3-7.8c55.2-11.9,111-14.7,167-10.4c25.5,2,50.7,7.1,76.1,10.7c4.1,0.6,5.3,2.4,5.3,6.6
	c-0.1,56.7-0.1,113.3-0.1,170c0,2.1,0,4.3,0,7.2c2.6,0,4.6,0,6.7,0c56.5,0,113,0.1,169.5-0.1c5,0,6.7,1.6,7.8,6.3
	c11.7,55,14.9,110.6,10.5,166.5c-2,25.7-7.1,51.1-10.7,76.6c-0.6,4.1-2.4,5.3-6.6,5.3c-56.7-0.1-113.3-0.1-170-0.1
	c-2.1,0-4.3,0-7.1,0c0,2.6,0,4.7,0,6.8c0,56.8-0.1,113.6,0.1,170.5c0,5-1.6,6.7-6.3,7.8c-55.2,11.8-111,14.9-167,10.4
	c-25.3-2-50.4-7.1-75.6-10.6c-4.5-0.6-5.8-2.6-5.8-7.2c0.2-56.8,0.1-113.6,0.1-170.5C287.7,535.3,287.7,533.1,287.7,530.3z
	 M227.1,485.8c25.2,0,50.3,0.1,75.5-0.1c4.8,0,8.5,1,11.8,4.8c4.1,4.8,8.7,9.2,13.4,13.4c3.4,3,4.6,6.3,4.6,10.9
	c-0.2,50.8,0,101.6-0.2,152.5c0,5.4,1.7,7.2,6.8,7.7c7.1,0.7,14.1,2.5,21.2,3.1c20,1.7,40.2,4.8,60.2,4.2
	c23.9-0.8,47.6-4.9,71.4-7.4c4.6-0.5,6.3-2.1,6.3-7.1c-0.2-50.8-0.1-101.6-0.2-152.5c0-4.6,0.9-8.2,4.6-11.4
	c5-4.3,9.7-9.2,14.1-14.1c2.7-3,5.5-4.1,9.6-4.1c50.8,0.1,101.6,0,152.5,0.2c5.2,0,6.9-1.7,7.4-6.5c1.2-10.1,3.4-20,4.3-30.1
	c1.5-17.4,3.9-34.9,3-52.3c-1.1-23.5-4.9-46.9-7.4-70.4c-0.5-4.9-2.3-6.5-7.4-6.5c-51,0.2-102,0.1-153,0.2c-3.4,0-5.9-0.9-8.3-3.4
	c-5-5.4-10.2-10.6-15.5-15.6c-2.8-2.6-3.9-5.3-3.9-9.1c0.1-50.8,0-101.6,0.2-152.5c0-5.4-1.7-7.6-6.8-7.6c-0.7,0-1.3-0.2-2-0.3
	c-25.5-4.5-51.2-8.1-76.9-7.1c-24.7,0.9-49.3,5-73.9,7.5c-4.7,0.5-6.2,2.2-6.2,7.2c0.2,51,0.1,102,0.2,153c0,3.6-0.8,6.3-3.6,8.8
	c-5.5,5.1-10.5,10.7-16.1,15.7c-2,1.8-5.1,3.2-7.7,3.3c-19.7,0.3-39.3,0.1-59,0.1c-31.8,0-63.7,0.1-95.5-0.1c-5.2,0-7,1.7-7.4,6.6
	c-0.3,4.6-1.7,9.2-2.1,13.8c-2,22.5-5.6,45.1-5.2,67.6c0.5,24.2,4.9,48.3,7.5,72.4c0.4,4,1.9,5.5,6.3,5.4
	C175.4,485.6,201.3,485.8,227.1,485.8z"/>
<path d="M455.1,560.2c0,23,0,46,0,69c0,2.9-0.2,5.4-3.8,5.8c-13.7,1.2-27.4,3.1-41.2,3.3c-10.1,0.1-20.1-2.1-30.2-3
	c-4.5-0.4-5.1-2.9-5.1-6.8c0.1-44.8,0-89.7,0.2-134.5c0-5.1-1.3-8.7-5-12.2c-11.9-11.4-23.5-23.2-35-35c-2.7-2.8-5.5-3.7-9.2-3.7
	c-45.2,0.1-90.3,0.1-135.5,0.1c-7,0-7-0.2-7.6-7.3c-0.9-9.1-2.9-18.1-2.9-27.2c0-11.6,1-23.2,2.6-34.7c1.5-11.1,2-11,13.2-11
	c43.5,0,87,0,130.5,0.1c3.8,0,6.5-1.1,9.1-3.8c12-12.3,24.2-24.4,36.4-36.4c2.5-2.4,3.4-4.9,3.4-8.3c-0.1-45-0.1-90-0.1-135
	c0-7,0.1-7,7.2-7.6c7.1-0.7,14.2-1.4,21.3-2.5c16.1-2.6,31.8,1.6,47.6,2.8c4.3,0.3,4,3.5,4,6.6c0,44.8,0,89.7-0.1,134.5
	c0,4.3,1.1,7.4,4.2,10.5c12.1,11.7,23.9,23.6,35.7,35.7c2.7,2.8,5.5,3.7,9.2,3.7c44.8-0.1,89.7-0.1,134.5-0.1c7,0,6.9,0.1,7.6,7.3
	c0.9,9.1,2.9,18.1,2.9,27.2c0,11.6-1,23.2-2.6,34.7c-1.5,11.1-2,11-13.2,11c-43.2,0-86.3,0-129.5-0.1c-3.6,0-6.2,1-8.8,3.6
	c-12,12.3-24.2,24.4-36.4,36.4c-2.6,2.5-3.7,5.1-3.7,8.7C455.2,514.5,455.1,537.3,455.1,560.2z"/>
</svg>
