<?xml version="1.0" encoding="UTF-8"?>
<!-- Generator: Adobe Illustrator 21.1.0, SVG Export Plug-In . SVG Version: 6.00 Build 0)  -->
<svg version="1.1" id="Layer_1" xmlns="http://www.w3.org/2000/svg" xmlns:xlink="http://www.w3.org/1999/xlink" x="0px" y="0px" viewBox="0 0 800 800" style="enable-background:new 0 0 800 800;" xml:space="preserve">
<path d="M194.9,208.7c6.6,4,13.6,7.6,19.8,12.2c13.4,9.9,26.9,19.8,39.3,30.9c8.5,7.6,15.4,17,22.5,26.1c8,10.2,15.4,21,23.3,31.3  c2.3,3,5.2,5.5,8.3,7.8c4.7,3.5,11,1.9,13.5-3.4c1.9-4.2,3.3-8.7,4.3-13.2c7.8-35.1,20.7-68.1,39.8-98.6  c10.5-16.8,21.3-33.4,32.1-50c6.2-9.4,10.9-19.5,13.1-30.6c3.5-17.5-0.3-33.1-12.8-46.2c-0.9-0.9-1.6-2-1.7-3.9c4.7,2.6,9.5,5,14,8  c22.6,14.9,39.5,35.3,53.3,58.1c22.3,36.8,33.3,77.4,38.1,120c4.8,43,1.4,85.5-9.2,127.4c-3,11.7-1.6,22.4,6.4,31.9  c10.1,12,25.8,12.7,36.7,1.5c8.5-8.7,12.8-19.3,12.2-31.2c-1.3-25.4,7.1-48.3,17.3-70.6c8.1-17.6,17.8-34.3,30.7-49  c2.2-2.4,4.7-4.5,7.8-7.4c-0.7,6.2-1.6,11.4-1.9,16.5c-2.5,41.1,3.5,80.7,22.1,117.9c8.1,16.2,12.2,33.8,14.8,51.7  c6.4,44.1,1.7,87-17.4,127.4C584.1,651.5,522,697,435.7,706.1c-122.2,12.8-232.4-76.5-246.5-198.2c-2.9-24.8,3.3-48.8,13.1-71.6  c8.6-20,18.8-39.4,23.7-60.9c11.9-51.8,8-101.6-19.6-148.2c-3.6-6.1-8.3-11.5-12.5-17.3C194.3,209.5,194.6,209.1,194.9,208.7z"/>
</svg>