<?xml version="1.0" encoding="utf-8"?>
<!-- Generator: Adobe Illustrator 21.1.0, SVG Export Plug-In . SVG Version: 6.00 Build 0)  -->
<svg version="1.1" id="Layer_1" xmlns="http://www.w3.org/2000/svg" xmlns:xlink="http://www.w3.org/1999/xlink" x="0px" y="0px"
	 viewBox="0 0 800 800" style="enable-background:new 0 0 800 800;" xml:space="preserve">
<path d="M454.8,603.8c-6.4-2.7-11.8-5.2-17.4-7.3c-24.1-9-49.2-14.3-74.6-18c-17-2.5-34.1-3.7-51.3-2.9c-4,0.2-4.7-1.5-4.4-5.1
	c4-47.6,14-94,28.4-139.6c4.2-13.3,8.9-26.5,13.6-39.6c0.4-1.2,2.3-2.2,3.8-2.8c53.7-23.6,109.3-41.3,166.9-52.4
	c11.4-2.2,22.9-4.3,34.3-6.7c3.6-0.8,5.8,0.1,7.8,3.4c8.5,14.4,14.4,29.7,14.3,46.7c-0.1,14.3-6.7,26.3-14,37.9
	c-9.9,15.6-23.3,27.7-39,37.4c-2.3,1.4-4.4,3.6-5.9,5.9c-26.6,41.5-47.9,85.4-59.8,133.5C456.9,597.2,455.9,600.1,454.8,603.8z"/>
<path d="M347,373.7c-0.8-9-1.4-17.3-2.3-25.5c-5.8-53-15-105.2-34.8-155c-2.4-6-5.7-11.7-8-17.8c-1.1-3-1.7-6.8-1.1-9.9
	c2.8-13.2,9.3-24.7,19.2-33.8c3.2-2.9,8.7-4.2,13.3-4.7c16.5-2,33.2-3,49.7-5c41.9-5.1,83.4-12.6,123.8-24.7
	c17.4-5.2,34-13.7,48.9-24.7c8.4-6.2,17-12.1,25.4-18.1c0,6.7-0.3,13.4,0.1,20.1c0.5,9,1.3,17.9,2.5,26.8c0.6,4-0.3,5.5-4.2,6.7
	c-40.6,11.7-81.1,23.7-121.6,35.6c-20.3,5.9-40.4,12.6-60.8,17.6c-15,3.7-26.9,16.7-26.5,33.6c0.5,24.1,0.2,48.3,2,72.3
	c1.1,14.6,5.7,28.9,8.7,43.3c0.7-0.1,1.4-0.1,2.1-0.2c0.1-1.6,0.3-3.2,0.3-4.8c0.2-17,0.3-34,0.6-51c0.1-8.7,6.1-14.4,14.9-14.4
	c18.6,0,37.3,0.2,55.9,0.3c31.4,0.2,62.9,0.5,94.3,0.7c2.1,0,4.3,0,7.1,0c-15.1,26.5-40.5,36.1-67.6,45.7
	c19.8,8.6,39.5,14.9,56.1,27.9C476.9,326.6,411,345.7,347,373.7z"/>
<path d="M274.5,714.6c-19.8,0-39.6-0.1-59.5,0.1c-4.7,0-8.4-1.7-11.6-4.8c-11-10.6-14.5-24.3-15.6-38.9c-0.3-4.4,7.8-16.2,11.9-16.9
	c2.9-0.5,6.2,0.6,9,1.7c12.4,4.9,24.8,6,37.5,1.2c10.3-3.9,18-10.2,23.8-20.1c8.9-15.4,19.3-29.9,29.1-44.7c2.1-3.2,4.9-4.2,8.9-4.2
	c32.7,0,64.5,6.9,95.9,14.8c13.5,3.4,26.4,8.9,39.6,13.4c4.4,1.5,5.6,3.4,2.7,7.9c-4.8,7.4-8.5,15.5-13.1,22.9
	c-21.7,35-53.3,56.5-92.7,67.1c-1.6,0.4-3.3,0.5-4.9,0.5C315.1,714.6,294.8,714.6,274.5,714.6z"/>
<path d="M385.5,233.1c-0.4-2.1-1.1-4.3-1.1-6.5c-0.1-3.3,0.2-6.6,0.2-10c0-7.7,4.4-13,12.1-14.4c53.2-9.4,106.5-18.8,159.7-28.2
	c8.5-1.5,17-3,25.5-4.5c1.3-0.2,2.6-0.3,4.7-0.5c-0.5,3.5-0.8,6.5-1.4,9.5c-3.4,17.2-7.3,34.2-17.6,49c-2.2,3.1-4.3,4.4-8.1,4.4
	c-52.1-0.4-104.1-0.8-156.2-1C397.7,230.9,392,232.3,385.5,233.1z"/>
<path d="M385.7,194.4c-3.2-12.2,1.3-20,14.1-24c13.2-4.1,26.5-7.8,39.7-11.7c47.3-13.8,94.5-27.6,141.8-41.4
	c1.6-0.5,3.2-0.8,5.7-1.5c1.2,5,3,9.8,3.2,14.6c0.2,7.6-0.8,15.3-1,22.9c-0.1,4.1-2,5.7-6,6.4c-50.8,8.9-101.6,17.9-152.4,26.9
	c-13.6,2.4-27.2,4.8-40.8,7.2C388.5,194.1,387.1,194.3,385.7,194.4z"/>
</svg>
