<svg xmlns="http://www.w3.org/2000/svg" xmlns:xlink="http://www.w3.org/1999/xlink" id="Layer_1" x="0" y="0" version="1.1" viewBox="0 0 800 800" xml:space="preserve" style="enable-background:new 0 0 800 800"><path d="M109,414.3c0-169,137.6-306.3,306.9-306.3c168.9,0.1,306.2,137.8,306.1,307.2C721.9,584.1,584.1,721.1,414.5,721 C246.2,720.8,109,583.2,109,414.3z M428.1,681c1.3,0.1,1.9,0.2,2.6,0.1c1.3-0.1,2.7-0.1,4-0.3c40.4-5.2,78.4-17.7,113.9-38 c20.6-11.8,40.6-24.7,56.7-42.2c36.1-39.3,59.6-85.6,71.4-137.6c2.5-11,4-22.1,6-33.5c-2.1-0.2-3.2-0.4-4.4-0.4 c-45.1,0-90.3,0-135.4-0.1c-3.3,0-4.5,1-5,4.4c-9.2,54.5-49.8,94.4-104.7,102.8c-3.9,0.6-5.2,1.9-5.2,6c0.1,44.8,0.1,89.6,0.1,134.4 C428.1,677.9,428.1,679.2,428.1,681z M681.8,399.9c0-1.9,0.1-3.3,0-4.6c-6.3-48.7-22.8-93.7-50.9-134.1c-9.3-13.3-19.1-26.9-31-37.7 c-41.5-37.7-90.4-61.3-145.4-72.1c-8.6-1.7-17.3-2.7-26.2-4.1c-0.1,1.9-0.3,2.9-0.3,3.9c0,45.2,0.1,90.3-0.1,135.5 c0,4.5,2.4,4.7,5.5,5.1c53.4,7.4,96.2,49.4,104.3,102.7c0.7,4.7,2.6,5.4,6.7,5.4c44-0.1,88-0.1,132-0.1 C678,399.9,679.7,399.9,681.8,399.9z M398.7,536.5c-2-0.4-3.8-0.8-5.5-1.2c-51.2-10.2-89.3-48.5-98.6-99.7c-1-5.7-3-6.7-8.2-6.6 c-43.8,0.2-87.6,0.1-131.4,0.1c-1.9,0-3.8,0-5.7,0c0,2.1-0.1,3.4,0,4.7c6.3,48.7,22.9,93.7,50.9,134.1c9,13,18.4,26.1,29.9,36.7 c40.4,37.1,88,60.7,141.6,72c8.9,1.9,17.9,3.1,27.1,4.6C398.7,632.5,398.7,584.6,398.7,536.5z M292.7,399.7 c11.1-60,46.4-96.1,106-108.6c0-47.6,0-95.1,0-142.9c-1.1,0-1.9-0.1-2.7,0c-44.9,5.9-86.7,20.7-125,44.9 c-16.4,10.3-32.5,21.3-45.6,35.6c-36.8,40.7-60.6,88.1-72,141.8c-2,9.5-3.3,19.2-4.9,29.2C197.2,399.7,245,399.7,292.7,399.7z M428.5,307.7c0,30.9,0,61.4,0,91.9c31.4,0,62.3,0,93.3,0C514.2,351.3,479.9,315.6,428.5,307.7z M521.8,429.5c-31.4,0-62.4,0-93.4,0 c0,30.5,0,60.6,0,90.8C477.7,512.9,512.8,479.5,521.8,429.5z M398.8,308.1c-25,6-46.9,16.2-63.4,35.7 c-13.6,16.1-22.1,34.8-25.7,55.9c30.1,0,59.5,0,89,0C398.8,369.1,398.8,339,398.8,308.1z M310.3,429.3c1,39.1,47.6,86.7,88.2,90 c0-30,0-60,0-90C368.8,429.3,339.6,429.3,310.3,429.3z"/></svg>