<?xml version="1.0" encoding="utf-8"?>
<!-- Generator: Adobe Illustrator 21.1.0, SVG Export Plug-In . SVG Version: 6.00 Build 0)  -->
<svg version="1.1" id="Layer_1" xmlns="http://www.w3.org/2000/svg" xmlns:xlink="http://www.w3.org/1999/xlink" x="0px" y="0px"
	 viewBox="0 0 800 800" style="enable-background:new 0 0 800 800;" xml:space="preserve">
<path d="M624.1,324.2c-1.2-0.7-2.4-1.2-3.5-1.9c-39-25-72.5-55.8-100.4-92.7c-6.1-8.1-11.7-16.6-17.8-24.7c-2.6-3.5-1.5-5.5,1-8.5
	c13.7-16.3,31.8-26.5,49.9-36.8c34-19.4,67.8-39,101.7-58.6c10.2-5.9,20.5-11.7,30.7-17.7c2.8-1.7,5.1-1.5,7.8,0.2
	c18.6,12.1,33.7,27.6,45.4,46.4c2.3,3.7,2.4,6.6,0.2,10.5c-31,53.4-61.6,107.1-93,160.3c-4.9,8.4-13.1,14.9-19.8,22.3
	C625.8,323.4,624.9,323.7,624.1,324.2z"/>
<path d="M397.3,374.5c2,2.9,3.1,4.5,4.1,6.2c10.7,17.3,24.7,31.3,42.2,41.8c5,3,5.1,3.4,0.4,7.2c-40.5,33.1-76.2,70.6-106.1,113.5
	c-15.7,22.6-29.6,46.3-38.4,72.6c-2.7,8-4.6,16.4-5.9,24.7c-1.3,8.7-8.7,12.1-13.7,17.7c-0.3,0.4-1.9,0.1-2.6-0.3
	c-1.1-0.7-1.9-1.8-2.9-2.7c-35.5-35.5-70.9-71-106.4-106.3c-3.4-3.4-3.3-5.2-0.1-8.8c6.1-6.8,13.1-10.1,22.2-11.6
	c20.8-3.4,39.6-12.6,57.8-22.8c46.6-26.2,86.7-60.6,122.8-99.7c8.2-8.9,15.9-18.4,23.8-27.6C395.5,377.5,396,376.5,397.3,374.5z"/>
<path d="M490,209.1c31.3,52.8,72.5,93.9,124.5,124.4c-0.4,0.8-0.6,1.7-1.1,2.2C602,347.9,590,359.1,574,365.5
	c-17.7,7.1-35.4,13.8-54.5,15.6c-0.7,0.1-1.4,0.1-1.9,0.5c-5.5,3.9-10.3,1.7-15.1-1.5c-24.3-16.4-44.8-36.6-60.3-61.6
	c-2.3-3.7-3.1-7.2-0.6-11.1c0.8-1.2,1-2.8,1.2-4.3c2.4-24.1,11-46.3,22.7-67.2c3.5-6.2,9.8-10.8,14.8-16.1
	C483.4,216.4,486.5,212.9,490,209.1z"/>
<path d="M147,722.1c21.9-15.9,37.8-37.1,54.3-59.9c-23.6,8.1-43.6,19.8-61.9,34.5c-18.3,14.7-34.2,31.7-47.6,51.2
	c16.5-50.4,40-97.3,66-143.2c-12,7.2-24.8,13.5-35.9,22c-10.9,8.4-20.1,19-31.1,29.7c3.3-7.3,5.7-13.8,8.9-19.8
	c15.6-28.8,37.8-51.7,64.1-70.8c9.4-6.9,9.3-6.8,15.7,2.7c21.2,31.7,47.5,58.3,79.4,79.2c3.8,2.5,3.8,4.5,0.8,7.3
	c-4.9,4.5-9.4,9.5-14.7,13.5c-16,12.2-32.3,24.1-48.5,36c-2.4,1.7-5.3,2.7-8.1,3.8c-12.3,4.7-24.5,9.4-36.8,14.1
	c-1.1,0.4-2.3,0.6-3.5,0.9C147.6,723,147.3,722.6,147,722.1z"/>
<path d="M497.3,392c-3,2-4.9,3.3-6.8,4.6c-9.4,6.3-18.8,12.6-28,19.1c-3.4,2.4-6.3,3-10,0.6c-18.5-11.6-33.5-26.7-44.9-45.3
	c-2.4-3.9-2.1-6.8,0.8-10.7c7-9.3,13.2-19.1,19.7-28.8c0.9-1.3,1.8-2.7,3.4-5.2C446.3,355.8,468,377.1,497.3,392z"/>
</svg>
