<svg xmlns="http://www.w3.org/2000/svg" xmlns:xlink="http://www.w3.org/1999/xlink" id="Layer_1" x="0" y="0" version="1.1" viewBox="0 0 800 800" xml:space="preserve" style="enable-background:new 0 0 800 800"><path d="M294.5,438.2c20.2-19,40.8-38.2,61.3-57.5c8.9-8.3,17.6-16.7,26.6-25c2.3-2.1,2.8-4,2.1-7c-1.5-6.3,4.3-12.1,10.7-10.5 c3.7,0.9,7.3,2.3,12,3.9c0,0,1.1-0.9,2.1-2c46.7-51.4,93.3-102.9,140.1-154.3c2.3-2.6,5.6-4.8,8.9-6c36.8-13.7,73.7-27.3,110.6-40.8 c1.9-0.7,3.7-1.3,7.1-2.5c0.6,7.8,1.8,15,1.6,22.1c-0.4,15.9-6.1,30.3-14.8,43.4c-13,19.4-27.6,37.6-44.8,53.4 c-13.9,12.7-28.5,24.5-42.8,36.8c-34.9,29.9-69.7,59.9-104.6,89.9c-4.4,3.8-8.8,7.6-12.5,10.8c1.9,4.9,3.8,9.2,5,13.6 c1.3,4.8-4.6,11.1-9.3,9.5c-6.2-2.2-9.3,0.8-12.8,5.2c-23.6,29.5-47.5,58.9-71.3,88.3c-0.7,0.9-1.5,1.7-1.9,2.1 C343.4,487.1,319.1,462.9,294.5,438.2z"/><path d="M235,494.1c27.1,27.1,53.9,53.9,81.2,81.2c-2.8,3.5-5.9,7.3-9,11.2c-25.3,31.2-50.6,62.3-75.7,93.6 c-2.2,2.8-4.4,3.4-7.7,2.8c-19.9-3.7-34.9-14.2-44.4-32.2c-0.9-1.7-3-3.4-4.9-3.8c-25.1-5.9-41.3-21-48.9-45.6 c-1.1-3.4,0.6-4.9,2.6-6.7c26.9-25.2,53.7-50.4,80.5-75.6C217.5,510.5,226.3,502.2,235,494.1z M155.9,596.2 c-0.1,10,8.4,18.6,18.2,18.7c10.4,0.1,18.7-8.2,18.8-18.6c0.1-10.1-8.2-18.6-18.2-18.7C164.3,577.5,156,585.7,155.9,596.2z M236.4,645.6c0-8.9-6.9-16.1-15.5-16.2c-8.8-0.1-16.3,7.2-16.5,16.1c-0.2,8.8,7.3,16.2,16.2,16.2 C229.4,661.6,236.4,654.4,236.4,645.6z"/><path d="M330.1,558.1c-26.5-26.5-52.6-52.6-79-79c8.8-8.3,17.9-16.8,26.4-24.9c25.2,25.3,50.3,50.3,75.6,75.6 C345.8,538.8,338,548.4,330.1,558.1z"/></svg>